{
  "accessors": [
    {
      "bufferView": 3,
      "componentType": 5126,
      "count": 5318,
      "max": [
        2.056813955307007,
        5.417001247406006,
        3.6962409019470215
      ],
      "min": [
        -2.056813955307007,
        -0.007725052535533905,
        -3.2000653743743896
      ],
      "type": "VEC3"
    },
    {
      "bufferView": 3,
      "byteOffset": 63816,
      "componentType": 5126,
      "count": 5318,
      "max": [
        0.9999204874038696,
        0.9996082782745361,
        0.9992837309837341
      ],
      "min": [
        -0.9999204277992249,
        -0.9999880790710449,
        -0.9997757077217102
      ],
      "type": "VEC3"
    },
    {
      "bufferView": 2,
      "componentType": 5126,
      "count": 5318,
      "max": [
        0.9927935004234314,
        0.9876216650009155
      ],
      "min": [
        0.01603531837463379,
        0.008021113462746143
      ],
      "type": "VEC2"
    },
    {
      "bufferView": 1,
      "componentType": 5125,
      "count": 17886,
      "type": "SCALAR"
    },
    {
      "bufferView": 3,
      "byteOffset": 127632,
      "componentType": 5126,
      "count": 206,
      "max": [
        1.919546127319336,
        4.209005832672119,
        1.6970937252044678
      ],
      "min": [
        -1.919546127319336,
        2.237215757369995,
        0.18745160102844238
      ],
      "type": "VEC3"
    },
    {
      "bufferView": 3,
      "byteOffset": 130104,
      "componentType": 5126,
      "count": 206,
      "max": [
        0.9993933439254761,
        0.9998272061347961,
        0.9982602596282959
      ],
      "min": [
        -0.9993933439254761,
        -0.9998283982276917,
        -0.9589326977729797
      ],
      "type": "VEC3"
    },
    {
      "bufferView": 2,
      "byteOffset": 42544,
      "componentType": 5126,
      "count": 206,
      "max": [
        0.9826737642288208,
        0.9842128753662109
      ],
      "min": [
        0.013674646615982056,
        0.6325012445449829
      ],
      "type": "VEC2"
    },
    {
      "bufferView": 1,
      "byteOffset": 71544,
      "componentType": 5125,
      "count": 822,
      "type": "SCALAR"
    },
    {
      "bufferView": 5,
      "componentType": 5126,
      "count": 28,
      "max": [
        1.000000238418579,
        0.9998607039451599,
        1.0,
        0.0,
        0.9984710216522217,
        1.0,
        0.9999363422393799,
        0.0,
        1.0000001192092896,
        0.9997960329055786,
        1.0,
        0.0,
        0.2669801414012909,
        0.7457469701766968,
        3.595834732055664,
        1.0
      ],
      "min": [
        -0.09366167336702347,
        -0.9998605847358704,
        -1.0,
        0.0,
        -0.9984710812568665,
        -1.0000001192092896,
        -0.9997962713241577,
        0.0,
        -1.000000238418579,
        -0.9874151349067688,
        -0.15815149247646332,
        0.0,
        -0.2848068177700043,
        -2.6836090087890625,
        -2.373734951019287,
        1.0
      ],
      "type": "MAT4"
    },
    {
      "bufferView": 0,
      "componentType": 5123,
      "count": 5318,
      "type": "VEC4"
    },
    {
      "bufferView": 4,
      "componentType": 5126,
      "count": 5318,
      "max": [
        1.0,
        0.493659645318985,
        0.29723793268203735,
        0.19094544649124146
      ],
      "min": [
        0.31103599071502686,
        0.0,
        0.0,
        0.0
      ],
      "type": "VEC4"
    },
    {
      "bufferView": 0,
      "byteOffset": 42544,
      "componentType": 5123,
      "count": 206,
      "type": "VEC4"
    },
    {
      "bufferView": 4,
      "byteOffset": 85088,
      "componentType": 5126,
      "count": 206,
      "max": [
        1.0,
        0.0,
        0.0,
        0.0
      ],
      "min": [
        1.0,
        0.0,
        0.0,
        0.0
      ],
      "type": "VEC4"
    }
  ],
  "asset": {
    "extras": {
      "author": "Hasksoft (https://sketchfab.com/Hasksoft)",
      "license": "CC-BY-4.0 (http://creativecommons.org/licenses/by/4.0/)",
      "source": "https://sketchfab.com/3d-models/investigator-c7b167b085e24b18a61930bb68a10021",
      "title": "Investigator"
    },
    "generator": "Sketchfab-12.65.0",
    "version": "2.0"
  },
  "bufferViews": [
    {
      "buffer": 0,
      "byteLength": 44192,
      "byteStride": 8,
      "name": "shortBufferViews",
      "target": 34962
    },
    {
      "buffer": 0,
      "byteLength": 74832,
      "byteOffset": 44192,
      "name": "floatBufferViews",
      "target": 34963
    },
    {
      "buffer": 0,
      "byteLength": 44192,
      "byteOffset": 119024,
      "byteStride": 8,
      "name": "floatBufferViews",
      "target": 34962
    },
    {
      "buffer": 0,
      "byteLength": 132576,
      "byteOffset": 163216,
      "byteStride": 12,
      "name": "floatBufferViews",
      "target": 34962
    },
    {
      "buffer": 0,
      "byteLength": 88384,
      "byteOffset": 295792,
      "byteStride": 16,
      "name": "floatBufferViews",
      "target": 34962
    },
    {
      "buffer": 0,
      "byteLength": 1792,
      "byteOffset": 384176,
      "name": "floatBufferViews"
    }
  ],
  "buffers": [
    {
      "byteLength": 385968,
      "uri": "scene.bin"
    }
  ],
  "images": [
    {
      "uri": "textures/Main_baseColor.png"
    },
    {
      "uri": "textures/MainExtras_baseColor.png"
    }
  ],
  "materials": [
    {
      "doubleSided": true,
      "name": "Main",
      "pbrMetallicRoughness": {
        "baseColorTexture": {
          "index": 0
        }
      }
    },
    {
      "doubleSided": true,
      "name": "MainExtras",
      "pbrMetallicRoughness": {
        "baseColorTexture": {
          "index": 1
        },
        "metallicFactor": 0.0,
        "roughnessFactor": 0.0
      }
    }
  ],
  "meshes": [
    {
      "name": "mesh_0",
      "primitives": [
        {
          "attributes": {
            "JOINTS_0": 9,
            "NORMAL": 1,
            "POSITION": 0,
            "TEXCOORD_0": 2,
            "WEIGHTS_0": 10
          },
          "indices": 3,
          "material": 0,
          "mode": 4
        }
      ]
    },
    {
      "name": "mesh_0",
      "primitives": [
        {
          "attributes": {
            "JOINTS_0": 11,
            "NORMAL": 5,
            "POSITION": 4,
            "TEXCOORD_0": 6,
            "WEIGHTS_0": 12
          },
          "indices": 7,
          "material": 1,
          "mode": 4
        }
      ]
    }
  ],
  "nodes": [
    {
      "children": [
        1
      ],
      "matrix": [
        1.0,
        0.0,
        0.0,
        0.0,
        0.0,
        2.220446049250313e-16,
        -1.0,
        0.0,
        0.0,
        1.0,
        2.220446049250313e-16,
        0.0,
        0.0,
        0.0,
        0.0,
        1.0
      ],
      "name": "Sketchfab_model"
    },
    {
      "children": [
        2
      ],
      "name": "root"
    },
    {
      "children": [
        3
      ],
      "matrix": [
        1.0,
        0.0,
        0.0,
        0.0,
        0.0,
        2.220446049250313e-16,
        1.0,
        0.0,
        0.0,
        -1.0,
        2.220446049250313e-16,
        0.0,
        0.0,
        0.0,
        0.0,
        1.0
      ],
      "name": "GLTF_SceneRootNode"
    },
    {
      "children": [
        4
      ],
      "name": "Armature_28"
    },
    {
      "children": [
        5,
        7,
        8,
        6
      ],
      "name": "GLTF_created_0"
    },
    {
      "children": [
        9
      ],
      "name": "GLTF_created_0_rootJoint"
    },
    {
      "name": "Body_27"
    },
    {
      "mesh": 0,
      "name": "Object_7",
      "skin": 0
    },
    {
      "mesh": 1,
      "name": "Object_8",
      "skin": 0
    },
    {
      "children": [
        10
      ],
      "name": "RootBone_26",
      "translation": [
        2.284729561097265e-08,
        0.03866279125213623,
        0.09695155173540115
      ]
    },
    {
      "children": [
        11,
        25,
        28,
        32
      ],
      "name": "HipsBone_25",
      "rotation": [
        0.02990717440843582,
        0.7064743041992188,
        0.029907193034887314,
        0.7064737677574158
      ],
      "scale": [
        1.0,
        0.9999999403953552,
        1.0
      ],
      "translation": [
        -2.3893409473174643e-09,
        0.2315327525138855,
        -0.04466177523136139
      ]
    },
    {
      "children": [
        12
      ],
      "name": "SpineBone_13",
      "rotation": [
        -0.07451750338077545,
        0.9972197413444519,
        2.0135010103672357e-08,
        1.0263108833896695e-06
      ],
      "translation": [
        -6.995851453694968e-09,
        0.350152850151062,
        -1.061157794122504e-15
      ]
    },
    {
      "children": [
        13,
        17,
        21
      ],
      "name": "ChestBone_12",
      "rotation": [
        7.902737308995711e-08,
        2.6915665785054443e-07,
        0.07676853984594345,
        0.9970490336418152
      ],
      "scale": [
        1.0000001192092896,
        1.0000001192092896,
        1.0
      ],
      "translation": [
        1.8916022526127563e-08,
        0.603574812412262,
        -1.7499629539506276e-14
      ]
    },
    {
      "children": [
        14
      ],
      "name": "NeckBone_3",
      "rotation": [
        7.465491336233754e-09,
        3.0494334835040604e-10,
        0.009833786636590958,
        0.9999516606330872
      ],
      "translation": [
        -2.97994589004702e-08,
        0.5776642560958862,
        3.5596136091888345e-15
      ]
    },
    {
      "children": [
        15,
        16
      ],
      "name": "HeadBone_2",
      "rotation": [
        0.01430224534124136,
        0.009850243106484413,
        0.013096840120851994,
        0.9997634291648865
      ],
      "scale": [
        0.9999999403953552,
        0.9999998807907104,
        1.0
      ],
      "translation": [
        -1.4888202670704231e-08,
        0.3698676824569702,
        -2.4878689196651885e-14
      ]
    },
    {
      "name": "TopMouth_0",
      "rotation": [
        0.49674081802368164,
        0.5069234371185303,
        -0.4838446378707886,
        0.5120269656181335
      ],
      "scale": [
        1.0000001192092896,
        1.0000001192092896,
        1.0000001192092896
      ],
      "translation": [
        1.4566551446914673,
        0.8800221681594849,
        -0.0033718037884682417
      ]
    },
    {
      "name": "LowerMouth_1",
      "rotation": [
        0.5120761394500732,
        0.4627229869365692,
        -0.5333415865898132,
        0.48909345269203186
      ],
      "scale": [
        1.000000238418579,
        1.000000238418579,
        0.9999999403953552
      ],
      "translation": [
        1.2462167739868164,
        0.07696140557527542,
        -9.213475209435273e-07
      ]
    },
    {
      "children": [
        18
      ],
      "name": "LeftShoulderBone_7",
      "rotation": [
        -0.6989536881446838,
        -0.09036802500486374,
        -0.15282107889652252,
        0.6927793025970459
      ],
      "scale": [
        0.9999999403953552,
        1.0000001192092896,
        1.0
      ],
      "translation": [
        -0.12433796375989914,
        0.5408269166946411,
        -0.2942306399345398
      ]
    },
    {
      "children": [
        19
      ],
      "name": "LeftUpperArmBone_6",
      "rotation": [
        -0.3245299458503723,
        0.11618446558713913,
        0.0033854423090815544,
        0.9387065768241882
      ],
      "scale": [
        1.0,
        1.0,
        0.9999999403953552
      ],
      "translation": [
        -3.238946177930302e-08,
        0.7472976446151733,
        -7.559805226264871e-08
      ]
    },
    {
      "children": [
        20
      ],
      "name": "LeftLowerArmBone_5",
      "rotation": [
        -0.02158418484032154,
        0.0009141088812611997,
        -0.02690229006111622,
        0.9994046092033386
      ],
      "scale": [
        0.9999999403953552,
        1.000000238418579,
        1.0
      ],
      "translation": [
        -7.704075954961809e-08,
        0.2968122065067291,
        -4.431555282735644e-07
      ]
    },
    {
      "name": "LeftHandBone_4",
      "rotation": [
        -0.005453093908727169,
        -0.001312945270910859,
        0.021421536803245544,
        0.999754786491394
      ],
      "scale": [
        0.9999998807907104,
        1.0000001192092896,
        1.0
      ],
      "translation": [
        8.124940364950817e-08,
        0.3024296760559082,
        -4.183648272260143e-08
      ]
    },
    {
      "children": [
        22
      ],
      "name": "RightShoulderBone_11",
      "rotation": [
        -0.15282167494297028,
        -0.6927792429924011,
        -0.6989535093307495,
        0.09036852419376373
      ],
      "scale": [
        0.9999998807907104,
        1.0,
        0.9999999403953552
      ],
      "translation": [
        -0.12433749437332153,
        0.5408269166946411,
        0.2942308783531189
      ]
    },
    {
      "children": [
        23
      ],
      "name": "RightUpperArmBone_10",
      "rotation": [
        -0.3245299458503723,
        -0.11618437618017197,
        -0.0033854423090815544,
        0.938706636428833
      ],
      "scale": [
        1.0,
        1.0000001192092896,
        1.0000001192092896
      ],
      "translation": [
        1.4017335736582481e-08,
        0.7472976446151733,
        -2.9906618692621123e-07
      ]
    },
    {
      "children": [
        24
      ],
      "name": "RightLowerArmBone_9",
      "rotation": [
        -0.021584199741482735,
        -0.0009140926413238049,
        0.02690231427550316,
        0.9994046092033386
      ],
      "scale": [
        0.9999999403953552,
        1.0,
        1.0
      ],
      "translation": [
        -8.968280340582169e-09,
        0.2968122065067291,
        -2.048065681492517e-07
      ]
    },
    {
      "name": "RightHandBone_8",
      "rotation": [
        -0.005453068763017654,
        0.0013129394501447678,
        -0.021421553567051888,
        0.999754786491394
      ],
      "scale": [
        0.9999998807907104,
        0.9999999403953552,
        0.9999997615814209
      ],
      "translation": [
        -2.917957253600889e-08,
        0.3024294078350067,
        -2.814157085140323e-07
      ]
    },
    {
      "children": [
        26
      ],
      "name": "Tails_16",
      "rotation": [
        -0.46973952651023865,
        -0.5006705522537231,
        -0.6189064979553223,
        0.3816130459308624
      ],
      "scale": [
        0.9999998211860657,
        0.9999997615814209,
        0.9999999403953552
      ],
      "translation": [
        0.7771087288856506,
        0.22684869170188904,
        5.669527354257298e-07
      ]
    },
    {
      "children": [
        27
      ],
      "name": "Tails.001_15",
      "rotation": [
        0.2575761377811432,
        0.04794178903102875,
        -0.2577262818813324,
        0.93001788854599
      ],
      "scale": [
        1.0,
        0.9999998807907104,
        1.0
      ],
      "translation": [
        -1.4901154088420299e-08,
        0.9921241402626038,
        6.434863308868444e-08
      ]
    },
    {
      "name": "Tails.002_14",
      "rotation": [
        0.3097850978374481,
        0.03953966125845909,
        -0.07965072989463806,
        0.9466390609741211
      ],
      "scale": [
        1.0,
        0.9999998211860657,
        0.9999998807907104
      ],
      "translation": [
        -2.384185791015625e-07,
        1.0339984893798828,
        -6.527200469008676e-08
      ]
    },
    {
      "children": [
        29
      ],
      "name": "LeftUpperLegBone_20",
      "rotation": [
        0.2153582125902176,
        0.11715932935476303,
        0.7019761204719543,
        0.6686733365058899
      ],
      "scale": [
        1.000000238418579,
        1.0000101327896118,
        1.0000028610229492
      ],
      "translation": [
        -0.5216761231422424,
        0.12479250878095627,
        0.7642629742622375
      ]
    },
    {
      "children": [
        30
      ],
      "name": "LeftLowerLegBone_19",
      "rotation": [
        5.2295291652626474e-08,
        1.0791367799356522e-13,
        3.725402208942796e-09,
        1.0
      ],
      "scale": [
        1.0,
        0.9999999403953552,
        1.0
      ],
      "translation": [
        1.5897846372681101e-09,
        0.31655409932136536,
        2.0292226565743476e-08
      ]
    },
    {
      "children": [
        31
      ],
      "name": "LeftFootBone_18",
      "rotation": [
        4.2813610434677685e-07,
        -1.874210830976608e-08,
        -0.5721240043640137,
        0.8201671242713928
      ],
      "scale": [
        1.0000001192092896,
        1.0,
        0.9999999403953552
      ],
      "translation": [
        1.589527287571002e-09,
        0.2622656226158142,
        -1.5831147948119906e-08
      ]
    },
    {
      "name": "LeftToesBone_17",
      "rotation": [
        0.14810580015182495,
        0.9889715313911438,
        8.26446751034382e-08,
        1.8158985426453e-07
      ],
      "scale": [
        0.9999999403953552,
        1.0000001192092896,
        1.0
      ],
      "translation": [
        9.06224997265781e-08,
        0.33231914043426514,
        1.1532100074873597e-07
      ]
    },
    {
      "children": [
        33
      ],
      "name": "RightUpperLegBone_24",
      "rotation": [
        -0.7019736766815186,
        0.6686752438545227,
        -0.21536222100257874,
        0.11715640872716904
      ],
      "scale": [
        1.0000003576278687,
        1.0000097751617432,
        1.0000027418136597
      ],
      "translation": [
        -0.5216748118400574,
        0.1247936263680458,
        -0.7642638087272644
      ]
    },
    {
      "children": [
        34
      ],
      "name": "RightLowerLegBone_23",
      "rotation": [
        -6.859342249754263e-08,
        -4.055034530381363e-09,
        3.7251939311033766e-09,
        1.0
      ],
      "scale": [
        1.0,
        0.9999998807907104,
        0.9999999403953552
      ],
      "translation": [
        -1.1477931494141558e-08,
        0.3165538012981415,
        6.878278835387164e-09
      ]
    },
    {
      "children": [
        35
      ],
      "name": "RightFootBone_22",
      "rotation": [
        4.4499375917439465e-07,
        7.284173264565652e-11,
        0.5721232295036316,
        0.8201676607131958
      ],
      "scale": [
        1.0,
        0.9999999403953552,
        1.0
      ],
      "translation": [
        -9.03992258827202e-09,
        0.262265682220459,
        1.398561977339341e-08
      ]
    },
    {
      "name": "RightToesBone_21",
      "rotation": [
        0.1481057107448578,
        -0.9889715313911438,
        -8.501175585706733e-08,
        1.761065959726693e-07
      ],
      "scale": [
        1.0000001192092896,
        0.9999998211860657,
        1.0000001192092896
      ],
      "translation": [
        -1.192594538679259e-07,
        0.3323194980621338,
        2.4303933088276608e-08
      ]
    }
  ],
  "samplers": [
    {
      "magFilter": 9729,
      "minFilter": 9987,
      "wrapS": 10497,
      "wrapT": 10497
    }
  ],
  "scene": 0,
  "scenes": [
    {
      "name": "Sketchfab_Scene",
      "nodes": [
        0
      ]
    }
  ],
  "skins": [
    {
      "inverseBindMatrices": 8,
      "joints": [
        5,
        9,
        10,
        11,
        12,
        13,
        14,
        15,
        16,
        17,
        18,
        19,
        20,
        21,
        22,
        23,
        24,
        25,
        26,
        27,
        28,
        29,
        30,
        31,
        32,
        33,
        34,
        35
      ],
      "skeleton": 5
    }
  ],
  "textures": [
    {
      "sampler": 0,
      "source": 0
    },
    {
      "sampler": 0,
      "source": 1
    }
  ]
}
